<?xml version="1.0" encoding="utf-8"?>
<!-- Generator: Adobe Illustrator 24.1.1, SVG Export Plug-In . SVG Version: 6.00 Build 0)  -->
<svg version="1.1" id="Layer_1" xmlns="http://www.w3.org/2000/svg" xmlns:xlink="http://www.w3.org/1999/xlink" x="0px" y="0px"
	 viewBox="0 0 512 512" style="enable-background:new 0 0 512 512;" xml:space="preserve">
<g>
	<path d="M256,345.6L141.9,231.5l-83.2,83.2L256,512l71.3-71.3l11.7-11.8l114.2-114.2l-83.2-83.2L256,345.6z M303.6,417l-11.7,11.8
		l-35.9,36l0-0.1l-35.9-35.9l0,0l-114-114l35.8-35.8L256,393l114.1-114.1l35.8,35.8L303.6,417z"/>
	<path d="M172.9,197.4l71.2,71.2l11.9,11.8l71.3-71.3l11.7-11.8L453.3,83.2L370.1,0L256,114.1L141.9,0L58.7,83.2L172.9,197.4
		L172.9,197.4z M106.1,83.2l35.8-35.8L256,161.5L370.1,47.4l35.8,35.8l-150,150L220,197.2l0,0L106.1,83.2z"/>
</g>
</svg>
