<?xml version="1.0" encoding="utf-8"?>
<!-- Svg Vector Icons : http://www.onlinewebfonts.com/icon -->
<!DOCTYPE svg PUBLIC "-//W3C//DTD SVG 1.1//EN" "http://www.w3.org/Graphics/SVG/1.1/DTD/svg11.dtd">
<svg version="1.1" xmlns="http://www.w3.org/2000/svg" xmlns:xlink="http://www.w3.org/1999/xlink" x="0px" y="0px" viewBox="0 0 256 256" enable-background="new 0 0 256 256" xml:space="preserve">
<metadata> Svg Vector Icons : http://www.onlinewebfonts.com/icon </metadata>
<g><g><g><path stroke-width="3" fill-opacity="0" stroke="#000000"  d="M36.2,25.3l-15,15l53.4,53.4L128,147l53.4-53.4l53.4-53.4l-15.1-15.1L204.5,10l-38.3,38.3L128,86.5L89.8,48.4C68.9,27.4,51.6,10.3,51.5,10.3C51.3,10.3,44.5,17,36.2,25.3z"/><path stroke-width="3" fill-opacity="0" stroke="#000000"  d="M36.6,124.4l-15.1,15.1l53.2,53.2L128,246l53.2-53.2l53.2-53.2l-15.1-15.1l-15.1-15.1l-38.1,38.1L128,185.5l-38.2-38.2l-38.1-38.1L36.6,124.4z"/></g></g></g>
</svg>